<svg width="166" height="54" viewBox="0 0 166 54" fill="none" xmlns="http://www.w3.org/2000/svg">
<path d="M7.728 53.908C6.432 53.908 5.19 53.764 4.002 53.476C2.814 53.224 1.806 52.828 0.978 52.288L3.246 46.186C4.218 46.87 5.406 47.212 6.81 47.212C7.854 47.212 8.682 46.852 9.294 46.132C9.942 45.448 10.266 44.404 10.266 43V13.948H18.69V42.946C18.69 46.294 17.736 48.958 15.828 50.938C13.92 52.918 11.22 53.908 7.728 53.908ZM14.478 9.898C12.93 9.898 11.67 9.448 10.698 8.548C9.726 7.648 9.24 6.532 9.24 5.2C9.24 3.868 9.726 2.752 10.698 1.852C11.67 0.951997 12.93 0.501997 14.478 0.501997C16.026 0.501997 17.286 0.933998 18.258 1.798C19.23 2.626 19.716 3.706 19.716 5.038C19.716 6.442 19.23 7.612 18.258 8.548C17.322 9.448 16.062 9.898 14.478 9.898ZM38.7046 43.432C36.2926 43.432 34.1326 42.964 32.2246 42.028C30.3526 41.092 28.8946 39.67 27.8506 37.762C26.8066 35.818 26.2846 33.352 26.2846 30.364V13.948H34.7086V29.122C34.7086 31.534 35.2126 33.316 36.2206 34.468C37.2646 35.584 38.7226 36.142 40.5946 36.142C41.8906 36.142 43.0426 35.872 44.0506 35.332C45.0586 34.756 45.8506 33.892 46.4266 32.74C47.0026 31.552 47.2906 30.076 47.2906 28.312V13.948H55.7146V43H47.7226V35.008L49.1806 37.33C48.2086 39.346 46.7686 40.876 44.8606 41.92C42.9886 42.928 40.9366 43.432 38.7046 43.432ZM100.725 13.516C103.029 13.516 105.063 13.984 106.827 14.92C108.627 15.82 110.031 17.224 111.039 19.132C112.083 21.004 112.605 23.416 112.605 26.368V43H104.181V27.664C104.181 25.324 103.695 23.596 102.723 22.48C101.751 21.364 100.383 20.806 98.6189 20.806C97.3949 20.806 96.2969 21.094 95.3249 21.67C94.3529 22.21 93.5969 23.038 93.0569 24.154C92.5169 25.27 92.2469 26.692 92.2469 28.42V43H83.8229V27.664C83.8229 25.324 83.3369 23.596 82.3649 22.48C81.4289 21.364 80.0789 20.806 78.3149 20.806C77.0909 20.806 75.9929 21.094 75.0209 21.67C74.0489 22.21 73.2929 23.038 72.7529 24.154C72.2129 25.27 71.9429 26.692 71.9429 28.42V43H63.5189V13.948H71.5649V21.886L70.0529 19.564C71.0609 17.584 72.4829 16.09 74.3189 15.082C76.1909 14.038 78.3149 13.516 80.6909 13.516C83.3549 13.516 85.6769 14.2 87.6569 15.568C89.6729 16.9 91.0049 18.952 91.6529 21.724L88.6829 20.914C89.6549 18.646 91.2029 16.846 93.3269 15.514C95.4869 14.182 97.9529 13.516 100.725 13.516ZM137.328 43.432C134.88 43.432 132.738 42.892 130.902 41.812C129.066 40.732 127.626 39.094 126.582 36.898C125.574 34.666 125.07 31.858 125.07 28.474C125.07 25.054 125.556 22.246 126.528 20.05C127.5 17.854 128.904 16.216 130.74 15.136C132.576 14.056 134.772 13.516 137.328 13.516C140.064 13.516 142.512 14.146 144.672 15.406C146.868 16.63 148.596 18.358 149.856 20.59C151.152 22.822 151.8 25.45 151.8 28.474C151.8 31.534 151.152 34.18 149.856 36.412C148.596 38.644 146.868 40.372 144.672 41.596C142.512 42.82 140.064 43.432 137.328 43.432ZM120.156 53.476V13.948H128.202V19.888L128.04 28.528L128.58 37.114V53.476H120.156ZM135.87 36.52C137.274 36.52 138.516 36.196 139.596 35.548C140.712 34.9 141.594 33.982 142.242 32.794C142.926 31.57 143.268 30.13 143.268 28.474C143.268 26.782 142.926 25.342 142.242 24.154C141.594 22.966 140.712 22.048 139.596 21.4C138.516 20.752 137.274 20.428 135.87 20.428C134.466 20.428 133.206 20.752 132.09 21.4C130.974 22.048 130.092 22.966 129.444 24.154C128.796 25.342 128.472 26.782 128.472 28.474C128.472 30.13 128.796 31.57 129.444 32.794C130.092 33.982 130.974 34.9 132.09 35.548C133.206 36.196 134.466 36.52 135.87 36.52Z" fill="#E10F15"/>
<path d="M160.625 43.432C159.185 43.432 157.943 42.946 156.899 41.974C155.891 40.966 155.387 39.688 155.387 38.14C155.387 36.592 155.891 35.35 156.899 34.414C157.943 33.442 159.185 32.956 160.625 32.956C162.101 32.956 163.343 33.442 164.351 34.414C165.359 35.35 165.863 36.592 165.863 38.14C165.863 39.688 165.359 40.966 164.351 41.974C163.343 42.946 162.101 43.432 160.625 43.432Z" fill="#C2C2C2"/>
</svg>
